<svg viewBox="0 0 1440 350" fill="none" xmlns="http://www.w3.org/2000/svg">
<rect width="1440" height="350" fill="#3B4F67"/>
<rect x="16" y="19" width="168" height="156" fill="#3B4F67"/>
<path d="M138.349 64.0567L142 64.8104L140.057 59.1821L141.916 57.6629L138.958 57.6464L133.599 52.9386L133.465 52.847L133.312 52.7413L123.997 46L123.862 46.047L112.789 50.1232L112.723 50.1091L112.673 50.1678L100.89 59.8442L97.6427 61.7109L88.2271 62.3567H78.5427L71.2887 67.4872L71.0356 68.5556L67.2847 69.1896L61.8073 72.876L61.7387 72.8901V72.9347L59 74.7709L59.7618 83.0761V83.1066L60.3021 89.1857L60.3364 89.2163C60.3364 89.2163 61.4514 90.3457 62.5664 91.4587C63.1252 92.0152 65.2893 94.0462 65.2893 94.0462C65.2893 94.0462 63.8844 91.036 62.6349 88.4038L60.9769 78.502L61.5358 75.6585L69.8521 74.1088L73.1839 79.2557L73.2498 79.3614L80.7042 83.6936L81.4818 90.3598L81.6004 90.5711L83.5958 91.4587L91.2189 95.8965L91.2716 95.9717L92.8268 97.7773V97.7938H92.8426L92.8927 97.8384L93.8575 97.883L94.3293 98.409L94.1263 98.5451L93.723 98.9208L93.9761 101.163L97.6427 102.006L98.0143 101.87V103.572L99.3165 105L104.319 103.45L99.8568 100.186L94.8038 94.1965L92.2522 88.4344L90.0538 80.2936L99.5379 81.4676L99.6038 81.4981L99.6539 81.4676L106.687 80.3828L106.755 80.4439V80.4298L108.632 81.7377L108.613 81.7682H108.648L115.274 89.1106L115.443 92.1044L110.509 95.9576L110.034 95.0254L107.295 95.7322L105.3 98.7706L108.935 98.6649L111.268 97.9581L113.822 98.0638L117.117 93.3536L118.775 92.5411L118.909 92.3462L119.415 89.4112L115.071 80.6857L115.121 80.249L117.32 78.3517L126.432 82.0687L126.466 82.1744L126.517 82.1603L128.765 85.2128L129.102 90.9163L129.087 90.9327L129.102 90.9773L128.494 91.6089L127.26 91.5033L127.023 91.6089L126.229 93.2643L126.785 95.5654L128.884 96.244L130.202 94.2576L130.286 94.0462L131.976 89.8784L131.994 89.7281L130.776 84.0693L129.661 80.7444L129.693 80.5049L129.508 80.5801L125.417 78.0653L125.402 78.0207H125.367L122.188 74.245L123.506 72.545L123.694 69.2177L122.46 67.0058L123.878 64.2985H123.896L123.912 64.2539L125.689 62.9883L126.617 63.5166L126.229 64.1929L126.211 64.2375L126.72 67.7901L128.088 69.0534L129.577 73.1601L128.747 75.9144L129.811 76.4404L130.845 77.2247L130.961 77.6309L131.045 77.2693L134.343 76.2455L136.338 72.4698L136.438 70.6782L137.403 66.6161L137.553 66.494L138.552 65.7285L138.349 64.0567ZM126.82 94.3773L126.551 93.2949L126.938 92.4965L126.82 94.3773ZM141.325 57.8437L139.939 58.8651L139.786 58.4143L139.77 58.3837L139.161 57.8437H141.325ZM133.159 53.0137L134.901 58.6561L127.141 51.208L133.143 52.9973L133.159 53.0137ZM132.4 52.4572L126.685 50.7548L124.453 46.7232L132.4 52.4572ZM123.896 46.4062L126.279 50.7102L117.997 50.8464L123.896 46.4062ZM123.035 46.6786L117.489 50.8605L113.416 50.2148L123.035 46.6786ZM112.891 50.4402L117.067 51.1024L109.257 55.2256L112.891 50.4402ZM111.861 51.2667L108.613 55.5567L106.974 55.2843L111.861 51.2667ZM106.652 55.5402L108.192 55.7821L105.403 57.2567L102.564 58.8815L106.652 55.5402ZM105.572 57.5267L108.698 55.8713L108.816 55.8126L117.573 51.1775H117.591L117.607 51.1611L126.482 51.0108L135.036 59.2126L133.902 61.2883L128.393 60.7764L126.754 57.4375L126.72 57.3623L125.214 54.291L118.841 53.5091L113.466 55.4205L113.213 55.5097L102.361 59.3629L105.572 57.5267ZM135.289 59.4685L135.476 59.377L137.453 59.5883L134.343 61.1685L135.289 59.4685ZM107.87 69.5488L104.032 78.0207L91.1187 77.9314L84.1546 74.6817L75.8383 69.9104L76.7503 67.6093L92.065 63.5448L109.494 65.8177L109.562 65.8342L107.904 69.5042L107.87 69.5206V69.5488ZM85.0166 77.2834L75.0923 78.7885L83.9859 75.0269L85.0166 77.2834ZM109.865 65.9375L113.956 67.2618L110.593 75.6749L108.226 69.5488L109.865 65.9375ZM110 65.6674L111.083 63.2912L113.769 66.872L110 65.6674ZM110.712 76.3512L115.005 78.4269L114.75 80.5636L109.104 81.362L110.712 76.3512ZM110.812 76.0647L114.075 67.8934L114.987 78.0958L110.812 76.0647ZM111.252 62.9883L116.88 58.5058L119.637 64.6296L114.228 66.9777L111.252 62.9883ZM111.489 62.4013C111.808 61.1239 112.773 57.994 113.45 55.8267L116.677 58.264L111.489 62.4013ZM113.753 55.6459L118.875 53.8261L124.996 54.5775L126.38 57.4069L117.017 58.1137L113.753 55.6459ZM113.094 55.8713C112.891 56.4888 112.486 57.8131 112.08 59.1375C111.405 61.3799 111.149 62.3121 111.083 62.7183L111.015 62.7629L101.328 60.0391L113.094 55.8713ZM100.837 60.2364L110.812 63.0353L109.678 65.5313L109.562 65.5172L98.067 61.8166L100.837 60.2364ZM97.7455 62.042L107.904 65.3058L92.8426 63.3358L97.7455 62.042ZM78.7273 62.6572H88.2614L96.359 62.1007L92.0492 63.2442L91.9807 63.2302V63.2607L76.9032 67.2618L78.7273 62.6572ZM78.237 62.9601L75.5483 69.7461L71.7473 67.5623L78.237 62.9601ZM67.4191 69.4737L70.9697 68.8726L70.4109 71.1901L66.8603 71.8828L62.5849 72.7258L67.4191 69.4737ZM64.3931 92.8135C63.4811 91.9095 61.8573 90.2705 60.6395 89.0519L60.1835 83.9941C61.317 86.4033 63.4811 90.9327 64.3931 92.8135ZM62.1104 87.2908C61.3829 85.7716 60.658 84.236 60.0992 83.0479L60.7924 79.4506L62.1104 87.2908ZM61.2326 75.4472L61.1799 75.7336L59.9806 81.8879L59.3558 74.9212L61.6386 73.3856L61.2326 75.4472ZM62.026 73.1461L66.1671 72.3336L61.6201 75.1912L62.026 73.1461ZM69.7862 73.8082L62.1447 75.2382L67.0132 72.1669L70.3424 71.5212L69.7862 73.8082ZM70.1052 73.9139L71.5602 67.8183L83.7144 74.8014L73.4712 79.1336L70.1052 73.9139ZM73.7401 79.3004L84.9138 77.6144L80.807 83.4071L73.7401 79.3004ZM85.1167 77.8868L85.4383 83.71L85.4568 83.8744L85.6413 87.2298L81.0943 83.5879L85.1167 77.8868ZM81.0785 83.9941L85.5569 87.5773L81.7876 90.1649L81.0785 83.9941ZM85.7599 87.8168L87.671 91.292L82.0591 90.3598L85.7599 87.8168ZM85.8284 84.7314L88.4986 90.7214L89.6822 92.1795L88.0927 91.3835L86.0314 87.6219L85.9787 87.4998L85.8284 84.7314ZM83.7645 91.2168L82.8024 90.7801L87.8555 91.623L90.697 95.2508L83.7645 91.2168ZM88.5329 91.9541L90.154 92.7665L90.2568 92.8276L93.9919 94.6943L91.4061 95.6265L88.5329 91.9541ZM91.609 95.8824L94.0763 94.9784L92.9771 97.4768L91.609 95.8824ZM93.3672 97.4462L94.4479 94.9949L96.3431 97.1152L93.3672 97.4462ZM94.0763 97.6717L95.6815 97.4932L94.585 98.2446L94.0763 97.6717ZM103.595 103.375L99.385 104.685L98.4203 103.631L101.278 101.689L103.595 103.375ZM99.5537 100.412L101.025 101.48L98.3201 103.316V101.767L98.9791 101.511L98.067 98.6649L99.5537 100.412ZM98.5731 101.344L97.5768 101.72L94.245 100.952L94.042 99.0711L94.6008 98.6203L97.7797 98.9068L98.5731 101.344ZM94.9883 98.3503L96.4934 97.3124L97.6268 98.5898L94.9883 98.3503ZM94.6693 94.6333L96.7464 97.087L94.6166 94.6943L94.6693 94.6333ZM91.9306 88.5095L94.4479 94.3632L94.4664 94.3773L94.5507 94.483L94.4137 94.5276L90.3912 92.5106C91.3375 90.179 91.7435 88.9744 91.8963 88.3428L91.9306 88.5095ZM90.1382 92.2265L88.8202 90.5852L85.7757 83.7993L85.6255 81.0919C86.8406 82.4609 91.2189 87.366 91.6433 87.8027C91.6934 88.1338 90.9316 90.24 90.1382 92.2265ZM91.5906 87.2744C90.5098 86.0863 87.0621 82.219 85.607 80.5801L85.4568 77.6896L89.6822 80.202L91.5906 87.2744ZM89.7665 79.9015L85.3882 77.2998L84.3919 75.1325L90.8472 78.1428L89.7665 79.9015ZM90.0881 79.993L91.153 78.2766L98.3359 81.0004L90.0881 79.993ZM99.5537 81.1365L91.9306 78.232L103.679 78.3071L99.5537 81.1365ZM100.213 81.0614L104.151 78.3682L106.349 80.1128L100.213 81.0614ZM106.705 79.993L104.354 78.1263L108.039 69.9715L110.406 76.0952L106.705 79.993ZM106.974 80.1879L110.237 76.7574L108.75 81.4066L106.974 80.1879ZM108.816 98.3643L105.893 98.4559L107.517 95.9881L109.85 95.3846L110.253 96.1971L108.816 98.3643ZM111.218 97.6576L109.307 98.2446L110.509 96.4084L113.16 97.7327L111.218 97.6576ZM113.55 97.5965L110.727 96.183L115.274 92.6163L113.55 97.5965ZM116.864 93.1446L114.091 97.1152L115.765 92.3157L118.182 92.5106L116.864 93.1446ZM115.799 92.0152L115.664 89.4722L118.335 92.2265L115.799 92.0152ZM119.062 89.4581L118.622 92.0457L115.63 88.9744L115.121 81.5263L119.062 89.4581ZM115.259 88.5846L109.038 81.7071L114.734 80.8947L115.259 88.5846ZM117.101 78.1263L115.19 79.7817L115.324 78.5936L115.359 78.4269L117.167 77.328C117.101 77.7812 117.083 78.0066 117.101 78.1263ZM128.612 91.9095L129.171 91.3225L129.777 93.5344L127.666 91.8344L128.612 91.9095ZM129.88 94.1073L128.712 95.8824L127.107 95.3565L127.328 91.9705L129.93 94.0462L129.88 94.1073ZM130.117 93.5344L129.44 91.083L131.504 90.1038L130.117 93.5344ZM129.406 90.766L129.118 85.7998L131.588 89.7281L129.406 90.766ZM129.543 81.5122L130.42 84.1444L131.435 88.8993L129.068 85.1377L129.543 81.5122ZM128.799 84.7314L126.82 82.0241L129.271 81.0144L128.799 84.7314ZM129.137 80.7303L126.669 81.7377L125.552 78.5325L129.137 80.7303ZM126.295 81.6766L117.438 78.0653C117.438 77.915 117.489 77.4947 117.539 77.119L125.13 78.3071L126.295 81.6766ZM124.859 77.962L117.929 76.8771L121.901 74.4704L124.859 77.962ZM123.322 69.3093L123.153 72.4698L121.867 74.1229L117.454 76.802L117.235 76.9218V76.9382L115.343 78.0817L114.378 67.2618L119.84 64.8996L122.12 67.1115L123.322 69.3093ZM122.188 66.7663L120.193 64.8104L123.456 64.3737L122.188 66.7663ZM123.625 64.0426L119.974 64.538L117.201 58.3837L126.295 57.6934L123.625 64.0426ZM125.452 62.7793L124.115 63.7256L126.076 59.0623L125.452 62.7793ZM125.805 62.7324L126.617 57.8883L128.106 60.9126L126.754 63.2607L125.805 62.7324ZM128.375 61.0934L133.902 61.6053L136.979 66.3437C135.595 66.6912 133.549 67.1867 133.143 67.2336L132.94 67.1726L126.567 64.2375L128.375 61.0934ZM126.988 67.6844L126.551 64.5545L132.584 67.3369L128.275 68.8726L126.988 67.6844ZM129.964 76.2455L129.087 75.8088L129.711 73.7331L130.642 76.7574L129.964 76.2455ZM130.861 76.3653L128.628 69.0839L132.838 67.5788L130.861 76.3653ZM136.051 70.6477L135.948 72.4229L134.055 76.0342L131.079 76.9687L133.209 67.5036C133.581 67.459 134.511 67.2618 136.997 66.6466L136.051 70.6477ZM137.319 66.2545L134.258 61.5607L137.587 59.8583L136.488 61.7697L137.928 63.3945L138.13 65.6228L137.319 66.2545ZM138.265 63.2748L136.894 61.725L138.246 59.3629L135.373 59.0623L133.634 53.3894L139.483 58.5364L141.494 64.4042L138.315 63.742L138.265 63.2748Z" fill="#A7E66E"/>
<path d="M33.9238 124.791C33.9238 125.303 33.7949 125.732 33.5371 126.08C33.2793 126.424 32.9297 126.684 32.4883 126.859C32.0469 127.031 31.5469 127.117 30.9883 127.117C30.6406 127.117 30.3242 127.1 30.0391 127.064C29.7578 127.033 29.502 126.99 29.2715 126.936C29.0449 126.881 28.8379 126.818 28.6504 126.748V126.145C28.9551 126.262 29.3066 126.365 29.7051 126.455C30.1074 126.541 30.5449 126.584 31.0176 126.584C31.4629 126.584 31.8574 126.52 32.2012 126.391C32.5488 126.262 32.8223 126.066 33.0215 125.805C33.2207 125.543 33.3203 125.213 33.3203 124.814C33.3203 124.463 33.2363 124.176 33.0684 123.953C32.9043 123.727 32.6562 123.533 32.3242 123.373C31.9922 123.209 31.5742 123.043 31.0703 122.875C30.7188 122.754 30.3984 122.627 30.1094 122.494C29.8242 122.357 29.5801 122.201 29.377 122.025C29.1738 121.846 29.0176 121.631 28.9082 121.381C28.8027 121.127 28.75 120.828 28.75 120.484C28.75 120.012 28.8691 119.615 29.1074 119.295C29.3496 118.971 29.6758 118.727 30.0859 118.562C30.5 118.395 30.9648 118.311 31.4805 118.311C31.8906 118.311 32.2793 118.35 32.6465 118.428C33.0176 118.502 33.375 118.615 33.7188 118.768L33.5078 119.289C33.1641 119.141 32.8203 119.031 32.4766 118.961C32.1328 118.891 31.793 118.855 31.457 118.855C31.0547 118.855 30.6953 118.916 30.3789 119.037C30.0664 119.154 29.8184 119.332 29.6348 119.57C29.4512 119.809 29.3594 120.109 29.3594 120.473C29.3594 120.848 29.4434 121.15 29.6113 121.381C29.7832 121.611 30.0254 121.803 30.3379 121.955C30.6543 122.107 31.0273 122.256 31.457 122.4C31.9648 122.572 32.4023 122.754 32.7695 122.945C33.1367 123.133 33.4199 123.371 33.6191 123.66C33.8223 123.949 33.9238 124.326 33.9238 124.791ZM42.9648 122.705C42.9648 123.357 42.8848 123.953 42.7246 124.492C42.5645 125.031 42.3242 125.496 42.0039 125.887C41.6836 126.277 41.2832 126.58 40.8027 126.795C40.3262 127.01 39.7695 127.117 39.1328 127.117C38.4922 127.117 37.9316 127.01 37.4512 126.795C36.9707 126.58 36.5703 126.277 36.25 125.887C35.9336 125.492 35.6953 125.025 35.5352 124.486C35.375 123.943 35.2949 123.346 35.2949 122.693C35.2949 121.826 35.4414 121.062 35.7344 120.402C36.0312 119.742 36.4668 119.227 37.041 118.855C37.6191 118.484 38.332 118.299 39.1797 118.299C39.9922 118.299 40.6797 118.477 41.2422 118.832C41.8086 119.184 42.2363 119.689 42.5254 120.35C42.8184 121.006 42.9648 121.791 42.9648 122.705ZM35.9277 122.699C35.9277 123.465 36.043 124.141 36.2734 124.727C36.5039 125.309 36.8574 125.764 37.334 126.092C37.8105 126.42 38.4121 126.584 39.1387 126.584C39.873 126.584 40.4766 126.422 40.9492 126.098C41.4219 125.773 41.7715 125.32 41.998 124.738C42.2246 124.156 42.3379 123.479 42.3379 122.705C42.3379 121.482 42.0703 120.533 41.5352 119.857C41.0039 119.182 40.2188 118.844 39.1797 118.844C38.4492 118.844 37.8418 119.006 37.3574 119.33C36.877 119.654 36.5176 120.105 36.2793 120.684C36.0449 121.262 35.9277 121.934 35.9277 122.699ZM45.5371 127H44.9336V118.434H49.6211V118.979H45.5371V122.629H49.3984V123.168H45.5371V127ZM53.207 127H52.5977V118.979H49.8203V118.434H55.9844V118.979H53.207V127ZM66.4727 118.434L64.1348 127H63.5488L61.7148 120.531C61.6719 120.395 61.6328 120.266 61.5977 120.145C61.5664 120.02 61.5352 119.902 61.5039 119.793C61.4766 119.68 61.4492 119.574 61.4219 119.477C61.3984 119.375 61.3789 119.283 61.3633 119.201C61.3477 119.283 61.3301 119.371 61.3105 119.465C61.2949 119.555 61.2754 119.648 61.252 119.746C61.2285 119.844 61.2031 119.945 61.1758 120.051C61.1484 120.156 61.1191 120.266 61.0879 120.379L59.2598 127H58.668L56.3594 118.434H56.9805L58.5918 124.475C58.6348 124.635 58.6738 124.787 58.709 124.932C58.748 125.076 58.7832 125.217 58.8145 125.354C58.8457 125.486 58.875 125.617 58.9023 125.746C58.9336 125.871 58.9609 125.998 58.9844 126.127C59.0117 125.998 59.0391 125.867 59.0664 125.734C59.0938 125.602 59.123 125.467 59.1543 125.33C59.1895 125.193 59.2246 125.053 59.2598 124.908C59.2988 124.76 59.3418 124.605 59.3887 124.445L61.0703 118.434H61.6738L63.4199 124.48C63.4668 124.648 63.5098 124.807 63.5488 124.955C63.5879 125.104 63.623 125.246 63.6543 125.383C63.6855 125.516 63.7148 125.646 63.7422 125.775C63.7695 125.9 63.7969 126.027 63.8242 126.156C63.8555 125.98 63.8867 125.809 63.918 125.641C63.9531 125.469 63.9941 125.289 64.041 125.102C64.0879 124.914 64.1406 124.709 64.1992 124.486L65.8457 118.434H66.4727ZM73.334 127L72.168 123.971H68.5703L67.3809 127H66.7656L70.1348 118.404H70.6855L73.9668 127H73.334ZM71.9746 123.426L70.791 120.215C70.7598 120.133 70.7207 120.027 70.6738 119.898C70.6309 119.77 70.584 119.633 70.5332 119.488C70.4863 119.344 70.4395 119.207 70.3926 119.078C70.3535 119.215 70.3105 119.352 70.2637 119.488C70.2168 119.625 70.1719 119.758 70.1289 119.887C70.0859 120.012 70.0449 120.125 70.0059 120.227L68.7754 123.426H71.9746ZM77.2598 118.434C77.9395 118.434 78.5059 118.508 78.959 118.656C79.416 118.805 79.7598 119.049 79.9902 119.389C80.2207 119.729 80.3359 120.188 80.3359 120.766C80.3359 121.199 80.2559 121.572 80.0957 121.885C79.9395 122.193 79.7227 122.447 79.4453 122.646C79.168 122.846 78.8477 122.998 78.4844 123.104L80.834 127H80.1191L77.9102 123.273H75.7832V127H75.1797V118.434H77.2598ZM77.2012 118.967H75.7832V122.74H77.4883C78.1875 122.74 78.7324 122.572 79.123 122.236C79.5176 121.9 79.7148 121.418 79.7148 120.789C79.7148 120.098 79.5078 119.621 79.0938 119.359C78.6797 119.098 78.0488 118.967 77.2012 118.967ZM86.998 127H82.3164V118.434H86.998V118.979H82.9199V122.225H86.7695V122.77H82.9199V126.455H86.998V127ZM94.1465 118.434C94.8262 118.434 95.3926 118.508 95.8457 118.656C96.3027 118.805 96.6465 119.049 96.877 119.389C97.1074 119.729 97.2227 120.188 97.2227 120.766C97.2227 121.199 97.1426 121.572 96.9824 121.885C96.8262 122.193 96.6094 122.447 96.332 122.646C96.0547 122.846 95.7344 122.998 95.3711 123.104L97.7207 127H97.0059L94.7969 123.273H92.6699V127H92.0664V118.434H94.1465ZM94.0879 118.967H92.6699V122.74H94.375C95.0742 122.74 95.6191 122.572 96.0098 122.236C96.4043 121.9 96.6016 121.418 96.6016 120.789C96.6016 120.098 96.3945 119.621 95.9805 119.359C95.5664 119.098 94.9355 118.967 94.0879 118.967ZM99.2031 127V118.434H99.8066V127H99.2031ZM108.742 122.635C108.742 123.592 108.572 124.395 108.232 125.043C107.896 125.691 107.396 126.18 106.732 126.508C106.072 126.836 105.254 127 104.277 127H102.227V118.434H104.547C105.461 118.434 106.229 118.594 106.85 118.914C107.471 119.234 107.941 119.707 108.262 120.332C108.582 120.953 108.742 121.721 108.742 122.635ZM108.109 122.658C108.109 121.842 107.977 121.16 107.711 120.613C107.445 120.066 107.039 119.656 106.492 119.383C105.945 119.105 105.252 118.967 104.412 118.967H102.83V126.467H104.248C105.541 126.467 106.508 126.15 107.148 125.518C107.789 124.881 108.109 123.928 108.109 122.658ZM115.381 127H110.699V118.434H115.381V118.979H111.303V122.225H115.152V122.77H111.303V126.455H115.381V127ZM119.412 118.434C120.092 118.434 120.658 118.508 121.111 118.656C121.568 118.805 121.912 119.049 122.143 119.389C122.373 119.729 122.488 120.188 122.488 120.766C122.488 121.199 122.408 121.572 122.248 121.885C122.092 122.193 121.875 122.447 121.598 122.646C121.32 122.846 121 122.998 120.637 123.104L122.986 127H122.271L120.062 123.273H117.936V127H117.332V118.434H119.412ZM119.354 118.967H117.936V122.74H119.641C120.34 122.74 120.885 122.572 121.275 122.236C121.67 121.9 121.867 121.418 121.867 120.789C121.867 120.098 121.66 119.621 121.246 119.359C120.832 119.098 120.201 118.967 119.354 118.967ZM129.186 124.791C129.186 125.303 129.057 125.732 128.799 126.08C128.541 126.424 128.191 126.684 127.75 126.859C127.309 127.031 126.809 127.117 126.25 127.117C125.902 127.117 125.586 127.1 125.301 127.064C125.02 127.033 124.764 126.99 124.533 126.936C124.307 126.881 124.1 126.818 123.912 126.748V126.145C124.217 126.262 124.568 126.365 124.967 126.455C125.369 126.541 125.807 126.584 126.279 126.584C126.725 126.584 127.119 126.52 127.463 126.391C127.811 126.262 128.084 126.066 128.283 125.805C128.482 125.543 128.582 125.213 128.582 124.814C128.582 124.463 128.498 124.176 128.33 123.953C128.166 123.727 127.918 123.533 127.586 123.373C127.254 123.209 126.836 123.043 126.332 122.875C125.98 122.754 125.66 122.627 125.371 122.494C125.086 122.357 124.842 122.201 124.639 122.025C124.436 121.846 124.279 121.631 124.17 121.381C124.064 121.127 124.012 120.828 124.012 120.484C124.012 120.012 124.131 119.615 124.369 119.295C124.611 118.971 124.938 118.727 125.348 118.562C125.762 118.395 126.227 118.311 126.742 118.311C127.152 118.311 127.541 118.35 127.908 118.428C128.279 118.502 128.637 118.615 128.98 118.768L128.77 119.289C128.426 119.141 128.082 119.031 127.738 118.961C127.395 118.891 127.055 118.855 126.719 118.855C126.316 118.855 125.957 118.916 125.641 119.037C125.328 119.154 125.08 119.332 124.896 119.57C124.713 119.809 124.621 120.109 124.621 120.473C124.621 120.848 124.705 121.15 124.873 121.381C125.045 121.611 125.287 121.803 125.6 121.955C125.916 122.107 126.289 122.256 126.719 122.4C127.227 122.572 127.664 122.754 128.031 122.945C128.398 123.133 128.682 123.371 128.881 123.66C129.084 123.949 129.186 124.326 129.186 124.791ZM134.137 118.434H136.486C137.545 118.434 138.318 118.6 138.807 118.932C139.299 119.264 139.545 119.793 139.545 120.52C139.545 120.848 139.48 121.146 139.352 121.416C139.227 121.686 139.039 121.912 138.789 122.096C138.543 122.275 138.238 122.398 137.875 122.465V122.506C138.309 122.572 138.666 122.693 138.947 122.869C139.232 123.041 139.443 123.27 139.58 123.555C139.721 123.836 139.791 124.172 139.791 124.562C139.791 125.125 139.662 125.586 139.404 125.945C139.15 126.305 138.797 126.57 138.344 126.742C137.891 126.914 137.367 127 136.773 127H134.137V118.434ZM134.74 122.242H136.639C137.443 122.242 138.025 122.102 138.385 121.82C138.744 121.539 138.924 121.123 138.924 120.572C138.924 120.002 138.73 119.592 138.344 119.342C137.957 119.092 137.338 118.967 136.486 118.967H134.74V122.242ZM134.74 122.77V126.467H136.756C137.549 126.467 138.146 126.307 138.549 125.986C138.951 125.662 139.152 125.18 139.152 124.539C139.152 124.117 139.059 123.777 138.871 123.52C138.684 123.258 138.402 123.068 138.027 122.951C137.656 122.83 137.193 122.77 136.639 122.77H134.74ZM146.342 127H141.66V118.434H146.342V118.979H142.264V122.225H146.113V122.77H142.264V126.455H146.342V127ZM150.373 118.434C151.053 118.434 151.619 118.508 152.072 118.656C152.529 118.805 152.873 119.049 153.104 119.389C153.334 119.729 153.449 120.188 153.449 120.766C153.449 121.199 153.369 121.572 153.209 121.885C153.053 122.193 152.836 122.447 152.559 122.646C152.281 122.846 151.961 122.998 151.598 123.104L153.947 127H153.232L151.023 123.273H148.896V127H148.293V118.434H150.373ZM150.314 118.967H148.896V122.74H150.602C151.301 122.74 151.846 122.572 152.236 122.236C152.631 121.9 152.828 121.418 152.828 120.789C152.828 120.098 152.621 119.621 152.207 119.359C151.793 119.098 151.162 118.967 150.314 118.967ZM155.43 127V118.434H156.033V126.449H160.111V127H155.43ZM161.582 127V118.434H162.186V127H161.582ZM170.84 127H170.225L165.162 119.424H165.133C165.141 119.635 165.146 119.85 165.15 120.068C165.158 120.283 165.164 120.506 165.168 120.736C165.176 120.963 165.18 121.197 165.18 121.439V127H164.605V118.434H165.227L170.271 125.986H170.301C170.297 125.814 170.291 125.615 170.283 125.389C170.279 125.162 170.273 124.93 170.266 124.691C170.262 124.453 170.26 124.229 170.26 124.018V118.434H170.84V127Z" fill="white"/>
<rect x="436" y="150" width="603" height="50" fill="#3B4F67"/>
<path d="M365.095 191H361.562V183.419L357 171.726H360.784L363.341 179.333L365.912 171.726H369.669L365.095 183.274V191ZM370.645 183.63C370.645 181.24 371.15 179.376 372.161 178.041C373.172 176.705 374.561 176.037 376.327 176.037C378.094 176.037 379.482 176.722 380.493 178.093C381.521 179.456 382.036 181.319 382.036 183.683C382.036 186.047 381.526 187.906 380.506 189.26C379.487 190.596 378.089 191.264 376.314 191.264C376.279 191.264 376.248 191.264 376.222 191.264C374.569 191.264 373.225 190.578 372.188 189.207C371.159 187.827 370.645 186.025 370.645 183.802C370.645 183.74 370.645 183.683 370.645 183.63ZM377.936 180.176C377.602 179.42 377.07 179.042 376.34 179.042C375.611 179.042 375.075 179.42 374.732 180.176C374.398 180.923 374.231 182.075 374.231 183.63C374.231 185.186 374.398 186.351 374.732 187.124C375.075 187.889 375.611 188.271 376.34 188.271C377.747 188.271 378.45 186.724 378.45 183.63C378.45 182.083 378.278 180.932 377.936 180.176ZM395.259 191H392.451L392.016 189.115H391.831C391.506 189.783 391.04 190.31 390.434 190.697C389.827 191.075 389.142 191.264 388.377 191.264C385.705 191.264 384.369 189.475 384.369 185.898V176.313H387.916V185.054C387.916 186.144 388.043 186.957 388.298 187.493C388.562 188.029 388.975 188.297 389.537 188.297C390.293 188.297 390.842 187.919 391.185 187.164C391.537 186.425 391.712 185.155 391.712 183.354V176.313H395.259V191ZM409.326 188.086H411.448C412.705 188.086 413.667 188.429 414.335 189.115C415.003 189.792 415.337 190.798 415.337 192.134C415.337 193.848 414.762 195.166 413.61 196.089C412.468 197.021 410.829 197.486 408.693 197.486C407.067 197.486 405.814 197.13 404.936 196.418C404.057 195.715 403.617 194.709 403.617 193.399C403.617 192.582 403.868 191.861 404.369 191.237C404.87 190.622 405.564 190.174 406.452 189.893C405.986 189.708 405.612 189.431 405.331 189.062C405.059 188.693 404.922 188.253 404.922 187.744C404.922 187.225 405.089 186.742 405.423 186.293C405.59 186.074 405.924 185.753 406.425 185.331C405.828 184.962 405.349 184.399 404.988 183.644C404.637 182.879 404.461 182.026 404.461 181.086C404.461 179.469 404.883 178.225 405.727 177.355C406.57 176.476 407.779 176.037 409.352 176.037C409.633 176.037 409.976 176.072 410.38 176.142C410.785 176.212 411.079 176.278 411.264 176.34H415.443V178.396L413.689 178.792C414.032 179.407 414.204 180.181 414.204 181.112C414.204 182.659 413.782 183.876 412.938 184.764C412.094 185.643 410.917 186.083 409.405 186.083C408.983 186.083 408.658 186.047 408.429 185.977C408.28 186.118 408.166 186.232 408.086 186.32C408.007 186.399 407.928 186.518 407.849 186.676C407.77 186.834 407.73 186.997 407.73 187.164C407.73 187.779 408.262 188.086 409.326 188.086ZM409.352 178.396C408.376 178.396 407.889 179.284 407.889 181.06C407.889 182.826 408.376 183.709 409.352 183.709C410.301 183.709 410.776 182.826 410.776 181.06C410.776 179.284 410.301 178.396 409.352 178.396ZM410.077 191.158H408.376C407.902 191.158 407.52 191.334 407.229 191.686C406.948 192.046 406.808 192.521 406.808 193.109C406.808 193.707 406.988 194.16 407.348 194.467C407.717 194.784 408.24 194.942 408.917 194.942C409.963 194.942 410.754 194.744 411.29 194.349C411.835 193.953 412.107 193.395 412.107 192.674C412.107 192.121 411.962 191.729 411.672 191.501C411.391 191.272 410.859 191.158 410.077 191.158ZM422.628 191.264C420.791 191.264 419.341 190.613 418.277 189.312C417.223 188.012 416.695 186.153 416.695 183.736C416.695 181.319 417.174 179.434 418.132 178.08C419.099 176.718 420.409 176.037 422.061 176.037C423.713 176.037 425.001 176.621 425.924 177.79C426.847 178.95 427.308 180.581 427.308 182.681V184.553H420.255C420.281 185.845 420.545 186.816 421.046 187.467C421.547 188.108 422.254 188.429 423.168 188.429C424.302 188.429 425.471 188.073 426.675 187.361V190.249C425.55 190.925 424.201 191.264 422.628 191.264ZM423.867 182.009C423.85 180.945 423.687 180.137 423.379 179.583C423.072 179.021 422.654 178.739 422.127 178.739C421.6 178.739 421.178 179.016 420.861 179.57C420.545 180.115 420.36 180.928 420.308 182.009H423.867ZM433.544 176.313H436.207V179.095H433.544V186.821C433.544 187.805 433.939 188.297 434.73 188.297C435.24 188.297 435.772 188.174 436.326 187.928V190.67C435.754 191.066 434.897 191.264 433.755 191.264C431.25 191.264 429.998 189.743 429.998 186.702V179.095H428.574V177.526L430.406 176.261L431.303 173.149H433.544V176.313ZM449.905 191.264C448.156 191.264 446.824 190.626 445.91 189.352C444.996 188.078 444.539 186.175 444.539 183.644C444.539 181.112 444.974 179.214 445.844 177.948C446.714 176.674 448.05 176.037 449.852 176.037C451.083 176.037 452.19 176.344 453.174 176.959L452.172 179.688C451.452 179.258 450.806 179.042 450.234 179.042C449.496 179.042 448.96 179.425 448.626 180.189C448.292 180.954 448.125 182.119 448.125 183.683C448.125 185.248 448.288 186.399 448.613 187.137C448.947 187.875 449.479 188.245 450.208 188.245C451.087 188.245 452.005 187.937 452.963 187.322V190.407C452.032 190.978 451.012 191.264 449.905 191.264ZM458.58 191H455.073V170.486H458.58V191ZM466.951 191.264C465.114 191.264 463.664 190.613 462.601 189.312C461.546 188.012 461.019 186.153 461.019 183.736C461.019 181.319 461.498 179.434 462.456 178.08C463.422 176.718 464.732 176.037 466.384 176.037C468.037 176.037 469.324 176.621 470.247 177.79C471.17 178.95 471.631 180.581 471.631 182.681V184.553H464.578C464.604 185.845 464.868 186.816 465.369 187.467C465.87 188.108 466.578 188.429 467.492 188.429C468.625 188.429 469.794 188.073 470.999 187.361V190.249C469.874 190.925 468.524 191.264 466.951 191.264ZM468.19 182.009C468.173 180.945 468.01 180.137 467.703 179.583C467.395 179.021 466.978 178.739 466.45 178.739C465.923 178.739 465.501 179.016 465.185 179.57C464.868 180.115 464.684 180.928 464.631 182.009H468.19ZM474.189 177.395C475.648 176.472 477.19 176.01 478.816 176.01C480.451 176.01 481.677 176.454 482.495 177.342C483.312 178.229 483.721 179.495 483.721 181.139V191H481.15L480.451 188.996H480.372C479.862 189.849 479.331 190.442 478.777 190.776C478.223 191.101 477.52 191.264 476.667 191.264C475.586 191.264 474.734 190.864 474.11 190.064C473.495 189.255 473.187 188.108 473.187 186.623C473.187 185.129 473.604 184.004 474.439 183.248C475.283 182.483 476.558 182.062 478.263 181.982L480.214 181.903V180.849C480.214 179.478 479.621 178.792 478.434 178.792C477.564 178.792 476.553 179.135 475.402 179.82L474.189 177.395ZM476.812 186.702C476.812 187.915 477.243 188.521 478.104 188.521C478.746 188.521 479.256 188.236 479.634 187.665C480.021 187.084 480.214 186.315 480.214 185.357V184.118L479.133 184.171C478.333 184.215 477.744 184.443 477.366 184.856C476.997 185.27 476.812 185.885 476.812 186.702ZM493.411 176.037C496.074 176.037 497.405 177.83 497.405 181.416V191H493.872V182.246C493.872 181.165 493.74 180.356 493.477 179.82C493.222 179.284 492.813 179.016 492.25 179.016C491.503 179.016 490.95 179.39 490.589 180.137C490.238 180.884 490.062 182.154 490.062 183.947V191H486.555V176.313H489.337L489.759 178.199H489.983C490.299 177.513 490.752 176.981 491.341 176.604C491.938 176.226 492.628 176.037 493.411 176.037ZM511.762 191.264C510.013 191.264 508.682 190.626 507.768 189.352C506.854 188.078 506.396 186.175 506.396 183.644C506.396 181.112 506.832 179.214 507.702 177.948C508.572 176.674 509.908 176.037 511.709 176.037C512.94 176.037 514.047 176.344 515.032 176.959L514.03 179.688C513.309 179.258 512.663 179.042 512.092 179.042C511.354 179.042 510.817 179.425 510.483 180.189C510.149 180.954 509.982 182.119 509.982 183.683C509.982 185.248 510.145 186.399 510.47 187.137C510.804 187.875 511.336 188.245 512.065 188.245C512.944 188.245 513.863 187.937 514.821 187.322V190.407C513.889 190.978 512.87 191.264 511.762 191.264ZM516.403 183.63C516.403 181.24 516.908 179.376 517.919 178.041C518.93 176.705 520.318 176.037 522.085 176.037C523.852 176.037 525.24 176.722 526.251 178.093C527.279 179.456 527.793 181.319 527.793 183.683C527.793 186.047 527.284 187.906 526.264 189.26C525.245 190.596 523.847 191.264 522.072 191.264C522.037 191.264 522.006 191.264 521.979 191.264C520.327 191.264 518.982 190.578 517.945 189.207C516.917 187.827 516.403 186.025 516.403 183.802C516.403 183.74 516.403 183.683 516.403 183.63ZM523.693 180.176C523.359 179.42 522.828 179.042 522.098 179.042C521.369 179.042 520.833 179.42 520.49 180.176C520.156 180.923 519.989 182.075 519.989 183.63C519.989 185.186 520.156 186.351 520.49 187.124C520.833 187.889 521.369 188.271 522.098 188.271C523.504 188.271 524.208 186.724 524.208 183.63C524.208 182.083 524.036 180.932 523.693 180.176ZM540.713 191H538.103L537.51 189.088H537.391C536.644 190.539 535.576 191.264 534.188 191.264C532.799 191.264 531.713 190.596 530.931 189.26C530.149 187.924 529.758 186.065 529.758 183.683C529.758 181.301 530.14 179.434 530.905 178.08C531.669 176.718 532.724 176.037 534.069 176.037C534.746 176.037 535.326 176.204 535.809 176.538C536.292 176.872 536.741 177.425 537.154 178.199H537.365C537.259 176.872 537.207 175.936 537.207 175.391V170.486H540.713V191ZM537.18 183.709C537.18 182.022 537.026 180.827 536.719 180.124C536.42 179.42 535.923 179.069 535.229 179.069C533.99 179.069 533.37 180.625 533.37 183.736C533.37 185.274 533.52 186.421 533.818 187.177C534.126 187.924 534.605 188.297 535.255 188.297C535.915 188.297 536.394 188.007 536.692 187.427C536.991 186.838 537.154 185.753 537.18 184.171V183.709ZM549.085 191.264C547.248 191.264 545.798 190.613 544.734 189.312C543.68 188.012 543.152 186.153 543.152 183.736C543.152 181.319 543.631 179.434 544.589 178.08C545.556 176.718 546.866 176.037 548.518 176.037C550.17 176.037 551.458 176.621 552.381 177.79C553.304 178.95 553.765 180.581 553.765 182.681V184.553H546.712C546.738 185.845 547.002 186.816 547.503 187.467C548.004 188.108 548.711 188.429 549.625 188.429C550.759 188.429 551.928 188.073 553.132 187.361V190.249C552.007 190.925 550.658 191.264 549.085 191.264ZM550.324 182.009C550.307 180.945 550.144 180.137 549.836 179.583C549.529 179.021 549.111 178.739 548.584 178.739C548.057 178.739 547.635 179.016 547.318 179.57C547.002 180.115 546.817 180.928 546.765 182.009H550.324ZM571.827 189.655C570.623 190.728 569.155 191.264 567.423 191.264C565.701 191.264 564.374 190.785 563.442 189.827C562.51 188.869 562.044 187.542 562.044 185.845C562.044 183.666 563.117 181.837 565.261 180.361C564.593 179.324 564.145 178.502 563.917 177.896C563.697 177.289 563.587 176.643 563.587 175.958C563.587 174.586 564.013 173.492 564.866 172.675C565.718 171.857 566.826 171.449 568.188 171.449C569.55 171.449 570.627 171.831 571.418 172.596C572.209 173.352 572.604 174.402 572.604 175.747C572.604 176.687 572.354 177.575 571.853 178.41C571.361 179.236 570.561 180.066 569.454 180.901L572.143 184.685C572.565 183.912 572.943 182.642 573.277 180.875H576.335C576.01 183.318 575.281 185.507 574.147 187.44L576.705 191H572.763L571.827 189.655ZM569.361 176.089C569.361 175.527 569.247 175.109 569.019 174.837C568.799 174.564 568.5 174.428 568.122 174.428C567.744 174.428 567.437 174.573 567.199 174.863C566.971 175.153 566.856 175.544 566.856 176.037C566.856 176.52 566.944 176.964 567.12 177.368C567.305 177.764 567.577 178.203 567.938 178.687C568.474 178.282 568.843 177.887 569.045 177.5C569.256 177.113 569.361 176.643 569.361 176.089ZM565.591 185.516C565.591 186.333 565.784 186.975 566.171 187.44C566.558 187.906 567.085 188.139 567.753 188.139C568.623 188.139 569.396 187.814 570.073 187.164L566.909 182.602C566.03 183.393 565.591 184.364 565.591 185.516ZM585.353 177.395C586.812 176.472 588.354 176.01 589.98 176.01C591.615 176.01 592.841 176.454 593.659 177.342C594.476 178.229 594.885 179.495 594.885 181.139V191H592.314L591.615 188.996H591.536C591.026 189.849 590.495 190.442 589.941 190.776C589.387 191.101 588.684 191.264 587.832 191.264C586.75 191.264 585.898 190.864 585.274 190.064C584.659 189.255 584.351 188.108 584.351 186.623C584.351 185.129 584.769 184.004 585.604 183.248C586.447 182.483 587.722 182.062 589.427 181.982L591.378 181.903V180.849C591.378 179.478 590.785 178.792 589.598 178.792C588.728 178.792 587.717 179.135 586.566 179.82L585.353 177.395ZM587.977 186.702C587.977 187.915 588.407 188.521 589.269 188.521C589.91 188.521 590.42 188.236 590.798 187.665C591.185 187.084 591.378 186.315 591.378 185.357V184.118L590.297 184.171C589.497 184.215 588.908 184.443 588.53 184.856C588.161 185.27 587.977 185.885 587.977 186.702ZM603.981 176.037C604.421 176.037 604.843 176.103 605.247 176.234L604.838 179.636C604.601 179.548 604.28 179.504 603.876 179.504C603.023 179.504 602.369 179.842 601.912 180.519C601.455 181.187 601.226 182.163 601.226 183.446V191H597.719V176.313H600.606L601.002 178.607H601.121C601.507 177.693 601.925 177.039 602.373 176.643C602.83 176.239 603.366 176.037 603.981 176.037ZM611.667 191.264C609.918 191.264 608.587 190.626 607.673 189.352C606.759 188.078 606.302 186.175 606.302 183.644C606.302 181.112 606.737 179.214 607.607 177.948C608.477 176.674 609.813 176.037 611.615 176.037C612.845 176.037 613.953 176.344 614.937 176.959L613.935 179.688C613.214 179.258 612.568 179.042 611.997 179.042C611.259 179.042 610.723 179.425 610.389 180.189C610.055 180.954 609.888 182.119 609.888 183.683C609.888 185.248 610.05 186.399 610.375 187.137C610.709 187.875 611.241 188.245 611.971 188.245C612.85 188.245 613.768 187.937 614.726 187.322V190.407C613.794 190.978 612.775 191.264 611.667 191.264ZM620.342 170.486V175.048C620.342 175.628 620.29 176.678 620.184 178.199H620.369C621.072 176.757 622.153 176.037 623.612 176.037C624.957 176.037 625.972 176.494 626.657 177.408C627.343 178.313 627.686 179.649 627.686 181.416V191H624.152V182.246C624.152 180.093 623.612 179.016 622.531 179.016C621.749 179.016 621.186 179.425 620.843 180.242C620.509 181.06 620.342 182.294 620.342 183.947V191H616.835V170.486H620.342ZM630.401 172.49C630.401 171.901 630.568 171.44 630.902 171.106C631.245 170.763 631.711 170.592 632.3 170.592C632.889 170.592 633.354 170.763 633.697 171.106C634.04 171.44 634.211 171.901 634.211 172.49C634.211 173.07 634.036 173.527 633.684 173.861C633.341 174.195 632.88 174.362 632.3 174.362C631.729 174.362 631.267 174.195 630.916 173.861C630.573 173.527 630.401 173.07 630.401 172.49ZM634.053 191H630.546V176.313H634.053V191ZM640.975 176.313H643.638V179.095H640.975V186.821C640.975 187.805 641.37 188.297 642.161 188.297C642.671 188.297 643.203 188.174 643.756 187.928V190.67C643.185 191.066 642.328 191.264 641.186 191.264C638.681 191.264 637.428 189.743 637.428 186.702V179.095H636.004V177.526L637.837 176.261L638.733 173.149H640.975V176.313ZM651.231 191.264C649.395 191.264 647.944 190.613 646.881 189.312C645.826 188.012 645.299 186.153 645.299 183.736C645.299 181.319 645.778 179.434 646.736 178.08C647.703 176.718 649.012 176.037 650.665 176.037C652.317 176.037 653.604 176.621 654.527 177.79C655.45 178.95 655.912 180.581 655.912 182.681V184.553H648.858C648.885 185.845 649.148 186.816 649.649 187.467C650.15 188.108 650.858 188.429 651.772 188.429C652.906 188.429 654.075 188.073 655.279 187.361V190.249C654.154 190.925 652.805 191.264 651.231 191.264ZM652.471 182.009C652.453 180.945 652.291 180.137 651.983 179.583C651.675 179.021 651.258 178.739 650.73 178.739C650.203 178.739 649.781 179.016 649.465 179.57C649.148 180.115 648.964 180.928 648.911 182.009H652.471ZM663.083 191.264C661.334 191.264 660.003 190.626 659.089 189.352C658.175 188.078 657.718 186.175 657.718 183.644C657.718 181.112 658.153 179.214 659.023 177.948C659.893 176.674 661.229 176.037 663.031 176.037C664.261 176.037 665.369 176.344 666.353 176.959L665.351 179.688C664.63 179.258 663.984 179.042 663.413 179.042C662.675 179.042 662.139 179.425 661.805 180.189C661.471 180.954 661.304 182.119 661.304 183.683C661.304 185.248 661.466 186.399 661.792 187.137C662.125 187.875 662.657 188.245 663.387 188.245C664.266 188.245 665.184 187.937 666.142 187.322V190.407C665.21 190.978 664.191 191.264 663.083 191.264ZM672.167 176.313H674.83V179.095H672.167V186.821C672.167 187.805 672.562 188.297 673.354 188.297C673.863 188.297 674.395 188.174 674.949 187.928V190.67C674.377 191.066 673.521 191.264 672.378 191.264C669.873 191.264 668.621 189.743 668.621 186.702V179.095H667.197V177.526L669.029 176.261L669.926 173.149H672.167V176.313ZM687.75 191H684.942L684.507 189.115H684.322C683.997 189.783 683.531 190.31 682.925 190.697C682.318 191.075 681.633 191.264 680.868 191.264C678.196 191.264 676.86 189.475 676.86 185.898V176.313H680.407V185.054C680.407 186.144 680.534 186.957 680.789 187.493C681.053 188.029 681.466 188.297 682.028 188.297C682.784 188.297 683.333 187.919 683.676 187.164C684.028 186.425 684.204 185.155 684.204 183.354V176.313H687.75V191ZM696.952 176.037C697.392 176.037 697.813 176.103 698.218 176.234L697.809 179.636C697.572 179.548 697.251 179.504 696.847 179.504C695.994 179.504 695.339 179.842 694.882 180.519C694.425 181.187 694.197 182.163 694.197 183.446V191H690.69V176.313H693.577L693.973 178.607H694.091C694.478 177.693 694.896 177.039 695.344 176.643C695.801 176.239 696.337 176.037 696.952 176.037ZM705.205 191.264C703.368 191.264 701.918 190.613 700.854 189.312C699.8 188.012 699.272 186.153 699.272 183.736C699.272 181.319 699.751 179.434 700.709 178.08C701.676 176.718 702.986 176.037 704.638 176.037C706.291 176.037 707.578 176.621 708.501 177.79C709.424 178.95 709.885 180.581 709.885 182.681V184.553H702.832C702.858 185.845 703.122 186.816 703.623 187.467C704.124 188.108 704.832 188.429 705.746 188.429C706.879 188.429 708.048 188.073 709.252 187.361V190.249C708.127 190.925 706.778 191.264 705.205 191.264ZM706.444 182.009C706.427 180.945 706.264 180.137 705.957 179.583C705.649 179.021 705.231 178.739 704.704 178.739C704.177 178.739 703.755 179.016 703.438 179.57C703.122 180.115 702.938 180.928 702.885 182.009H706.444ZM719.114 177.395C720.573 176.472 722.115 176.01 723.741 176.01C725.376 176.01 726.602 176.454 727.419 177.342C728.237 178.229 728.646 179.495 728.646 181.139V191H726.075L725.376 188.996H725.297C724.787 189.849 724.255 190.442 723.702 190.776C723.148 191.101 722.445 191.264 721.592 191.264C720.511 191.264 719.659 190.864 719.035 190.064C718.419 189.255 718.112 188.108 718.112 186.623C718.112 185.129 718.529 184.004 719.364 183.248C720.208 182.483 721.482 182.062 723.188 181.982L725.139 181.903V180.849C725.139 179.478 724.545 178.792 723.359 178.792C722.489 178.792 721.478 179.135 720.327 179.82L719.114 177.395ZM721.737 186.702C721.737 187.915 722.168 188.521 723.029 188.521C723.671 188.521 724.181 188.236 724.559 187.665C724.945 187.084 725.139 186.315 725.139 185.357V184.118L724.058 184.171C723.258 184.215 722.669 184.443 722.291 184.856C721.922 185.27 721.737 185.885 721.737 186.702ZM738.335 176.037C740.999 176.037 742.33 177.83 742.33 181.416V191H738.797V182.246C738.797 181.165 738.665 180.356 738.401 179.82C738.146 179.284 737.738 179.016 737.175 179.016C736.428 179.016 735.875 179.39 735.514 180.137C735.163 180.884 734.987 182.154 734.987 183.947V191H731.48V176.313H734.262L734.684 178.199H734.908C735.224 177.513 735.677 176.981 736.266 176.604C736.863 176.226 737.553 176.037 738.335 176.037ZM755.606 191H752.996L752.402 189.088H752.284C751.537 190.539 750.469 191.264 749.08 191.264C747.691 191.264 746.606 190.596 745.824 189.26C745.042 187.924 744.65 186.065 744.65 183.683C744.65 181.301 745.033 179.434 745.797 178.08C746.562 176.718 747.617 176.037 748.961 176.037C749.638 176.037 750.218 176.204 750.702 176.538C751.185 176.872 751.633 177.425 752.046 178.199H752.257C752.152 176.872 752.099 175.936 752.099 175.391V170.486H755.606V191ZM752.073 183.709C752.073 182.022 751.919 180.827 751.611 180.124C751.312 179.42 750.816 179.069 750.122 179.069C748.882 179.069 748.263 180.625 748.263 183.736C748.263 185.274 748.412 186.421 748.711 187.177C749.019 187.924 749.498 188.297 750.148 188.297C750.807 188.297 751.286 188.007 751.585 187.427C751.884 186.838 752.046 185.753 752.073 184.171V183.709ZM769.146 176.313H771.809V179.095H769.146V186.821C769.146 187.805 769.541 188.297 770.332 188.297C770.842 188.297 771.374 188.174 771.927 187.928V190.67C771.356 191.066 770.499 191.264 769.356 191.264C766.852 191.264 765.599 189.743 765.599 186.702V179.095H764.175V177.526L766.008 176.261L766.904 173.149H769.146V176.313ZM780.246 176.037C780.686 176.037 781.107 176.103 781.512 176.234L781.103 179.636C780.866 179.548 780.545 179.504 780.141 179.504C779.288 179.504 778.633 179.842 778.176 180.519C777.719 181.187 777.491 182.163 777.491 183.446V191H773.984V176.313H776.871L777.267 178.607H777.385C777.772 177.693 778.189 177.039 778.638 176.643C779.095 176.239 779.631 176.037 780.246 176.037ZM793.825 191H791.017L790.582 189.115H790.397C790.072 189.783 789.606 190.31 789 190.697C788.394 191.075 787.708 191.264 786.943 191.264C784.271 191.264 782.936 189.475 782.936 185.898V176.313H786.482V185.054C786.482 186.144 786.609 186.957 786.864 187.493C787.128 188.029 787.541 188.297 788.104 188.297C788.859 188.297 789.409 187.919 789.751 187.164C790.103 186.425 790.279 185.155 790.279 183.354V176.313H793.825V191ZM802.184 191.264C800.347 191.264 798.896 190.613 797.833 189.312C796.778 188.012 796.251 186.153 796.251 183.736C796.251 181.319 796.73 179.434 797.688 178.08C798.655 176.718 799.964 176.037 801.617 176.037C803.269 176.037 804.557 176.621 805.479 177.79C806.402 178.95 806.864 180.581 806.864 182.681V184.553H799.811C799.837 185.845 800.101 186.816 800.602 187.467C801.103 188.108 801.81 188.429 802.724 188.429C803.858 188.429 805.027 188.073 806.231 187.361V190.249C805.106 190.925 803.757 191.264 802.184 191.264ZM803.423 182.009C803.405 180.945 803.243 180.137 802.935 179.583C802.627 179.021 802.21 178.739 801.683 178.739C801.155 178.739 800.733 179.016 800.417 179.57C800.101 180.115 799.916 180.928 799.863 182.009H803.423ZM819.771 176.313H822.434V179.095H819.771V186.821C819.771 187.805 820.166 188.297 820.957 188.297C821.467 188.297 821.999 188.174 822.552 187.928V190.67C821.981 191.066 821.124 191.264 819.981 191.264C817.477 191.264 816.224 189.743 816.224 186.702V179.095H814.8V177.526L816.633 176.261L817.529 173.149H819.771V176.313ZM830.027 191.264C828.19 191.264 826.74 190.613 825.677 189.312C824.622 188.012 824.095 186.153 824.095 183.736C824.095 181.319 824.574 179.434 825.532 178.08C826.499 176.718 827.808 176.037 829.46 176.037C831.113 176.037 832.4 176.621 833.323 177.79C834.246 178.95 834.708 180.581 834.708 182.681V184.553H827.654C827.681 185.845 827.944 186.816 828.445 187.467C828.946 188.108 829.654 188.429 830.568 188.429C831.702 188.429 832.871 188.073 834.075 187.361V190.249C832.95 190.925 831.601 191.264 830.027 191.264ZM831.267 182.009C831.249 180.945 831.086 180.137 830.779 179.583C830.471 179.021 830.054 178.739 829.526 178.739C828.999 178.739 828.577 179.016 828.261 179.57C827.944 180.115 827.76 180.928 827.707 182.009H831.267ZM841.879 191.264C840.13 191.264 838.799 190.626 837.885 189.352C836.971 188.078 836.514 186.175 836.514 183.644C836.514 181.112 836.949 179.214 837.819 177.948C838.689 176.674 840.025 176.037 841.827 176.037C843.057 176.037 844.165 176.344 845.149 176.959L844.147 179.688C843.426 179.258 842.78 179.042 842.209 179.042C841.471 179.042 840.935 179.425 840.601 180.189C840.267 180.954 840.1 182.119 840.1 183.683C840.1 185.248 840.262 186.399 840.587 187.137C840.921 187.875 841.453 188.245 842.183 188.245C843.062 188.245 843.98 187.937 844.938 187.322V190.407C844.006 190.978 842.987 191.264 841.879 191.264ZM850.554 170.486V175.048C850.554 175.628 850.501 176.678 850.396 178.199H850.581C851.284 176.757 852.365 176.037 853.824 176.037C855.168 176.037 856.184 176.494 856.869 177.408C857.555 178.313 857.897 179.649 857.897 181.416V191H854.364V182.246C854.364 180.093 853.824 179.016 852.743 179.016C851.96 179.016 851.398 179.425 851.055 180.242C850.721 181.06 850.554 182.294 850.554 183.947V191H847.047V170.486H850.554ZM867.587 176.037C870.25 176.037 871.582 177.83 871.582 181.416V191H868.049V182.246C868.049 181.165 867.917 180.356 867.653 179.82C867.398 179.284 866.99 179.016 866.427 179.016C865.68 179.016 865.126 179.39 864.766 180.137C864.415 180.884 864.239 182.154 864.239 183.947V191H860.732V176.313H863.514L863.936 178.199H864.16C864.476 177.513 864.929 176.981 865.518 176.604C866.115 176.226 866.805 176.037 867.587 176.037ZM873.889 183.63C873.889 181.24 874.395 179.376 875.405 178.041C876.416 176.705 877.805 176.037 879.571 176.037C881.338 176.037 882.727 176.722 883.737 178.093C884.766 179.456 885.28 181.319 885.28 183.683C885.28 186.047 884.77 187.906 883.75 189.26C882.731 190.596 881.333 191.264 879.558 191.264C879.523 191.264 879.492 191.264 879.466 191.264C877.813 191.264 876.469 190.578 875.432 189.207C874.403 187.827 873.889 186.025 873.889 183.802C873.889 183.74 873.889 183.683 873.889 183.63ZM881.18 180.176C880.846 179.42 880.314 179.042 879.584 179.042C878.855 179.042 878.319 179.42 877.976 180.176C877.642 180.923 877.475 182.075 877.475 183.63C877.475 185.186 877.642 186.351 877.976 187.124C878.319 187.889 878.855 188.271 879.584 188.271C880.991 188.271 881.694 186.724 881.694 183.63C881.694 182.083 881.522 180.932 881.18 180.176ZM891.265 191H887.758V170.486H891.265V191ZM893.691 183.63C893.691 181.24 894.196 179.376 895.207 178.041C896.218 176.705 897.606 176.037 899.373 176.037C901.14 176.037 902.528 176.722 903.539 178.093C904.567 179.456 905.082 181.319 905.082 183.683C905.082 186.047 904.572 187.906 903.552 189.26C902.533 190.596 901.135 191.264 899.36 191.264C899.325 191.264 899.294 191.264 899.268 191.264C897.615 191.264 896.271 190.578 895.233 189.207C894.205 187.827 893.691 186.025 893.691 183.802C893.691 183.74 893.691 183.683 893.691 183.63ZM900.981 180.176C900.647 179.42 900.116 179.042 899.386 179.042C898.657 179.042 898.121 179.42 897.778 180.176C897.444 180.923 897.277 182.075 897.277 183.63C897.277 185.186 897.444 186.351 897.778 187.124C898.121 187.889 898.657 188.271 899.386 188.271C900.792 188.271 901.496 186.724 901.496 183.63C901.496 182.083 901.324 180.932 900.981 180.176ZM912.016 188.086H914.139C915.396 188.086 916.358 188.429 917.026 189.115C917.694 189.792 918.028 190.798 918.028 192.134C918.028 193.848 917.452 195.166 916.301 196.089C915.158 197.021 913.519 197.486 911.383 197.486C909.757 197.486 908.505 197.13 907.626 196.418C906.747 195.715 906.308 194.709 906.308 193.399C906.308 192.582 906.558 191.861 907.059 191.237C907.56 190.622 908.254 190.174 909.142 189.893C908.676 189.708 908.303 189.431 908.021 189.062C907.749 188.693 907.613 188.253 907.613 187.744C907.613 187.225 907.78 186.742 908.114 186.293C908.281 186.074 908.615 185.753 909.116 185.331C908.518 184.962 908.039 184.399 907.679 183.644C907.327 182.879 907.151 182.026 907.151 181.086C907.151 179.469 907.573 178.225 908.417 177.355C909.261 176.476 910.469 176.037 912.042 176.037C912.324 176.037 912.667 176.072 913.071 176.142C913.475 176.212 913.77 176.278 913.954 176.34H918.133V178.396L916.38 178.792C916.723 179.407 916.894 180.181 916.894 181.112C916.894 182.659 916.472 183.876 915.628 184.764C914.785 185.643 913.607 186.083 912.095 186.083C911.673 186.083 911.348 186.047 911.12 185.977C910.97 186.118 910.856 186.232 910.777 186.32C910.698 186.399 910.619 186.518 910.54 186.676C910.46 186.834 910.421 186.997 910.421 187.164C910.421 187.779 910.953 188.086 912.016 188.086ZM912.042 178.396C911.067 178.396 910.579 179.284 910.579 181.06C910.579 182.826 911.067 183.709 912.042 183.709C912.992 183.709 913.466 182.826 913.466 181.06C913.466 179.284 912.992 178.396 912.042 178.396ZM912.768 191.158H911.067C910.592 191.158 910.21 191.334 909.92 191.686C909.639 192.046 909.498 192.521 909.498 193.109C909.498 193.707 909.678 194.16 910.039 194.467C910.408 194.784 910.931 194.942 911.607 194.942C912.653 194.942 913.444 194.744 913.98 194.349C914.525 193.953 914.798 193.395 914.798 192.674C914.798 192.121 914.653 191.729 914.363 191.501C914.082 191.272 913.55 191.158 912.768 191.158ZM920.836 197.486C920.15 197.486 919.531 197.412 918.977 197.262V194.322C919.329 194.428 919.733 194.48 920.19 194.48C921.368 194.48 922.141 193.707 922.51 192.16L922.761 191.237L918.41 176.313H922.049L924.079 184.606C924.29 185.397 924.453 186.43 924.567 187.704H924.646C924.655 187.502 924.694 187.128 924.765 186.583L924.936 185.305C924.98 184.979 925.586 181.982 926.755 176.313H930.447L926.241 192.055C925.723 193.997 925.042 195.386 924.198 196.221C923.363 197.064 922.242 197.486 920.836 197.486ZM953.413 191H948.851L947.388 182.47L946.874 178.871H946.821C946.689 180.031 946.575 180.937 946.478 181.587C946.381 182.237 945.832 185.375 944.83 191H940.321L937.395 176.313H940.915L942.259 184.408C942.417 185.305 942.562 186.619 942.694 188.35H942.773C942.791 187.524 942.927 186.201 943.182 184.382L944.632 176.313H949.141L950.578 184.408C950.745 185.261 950.89 186.575 951.013 188.35H951.066C951.18 186.821 951.334 185.507 951.527 184.408L952.925 176.313H956.353L953.413 191ZM958.014 172.49C958.014 171.901 958.181 171.44 958.515 171.106C958.857 170.763 959.323 170.592 959.912 170.592C960.501 170.592 960.967 170.763 961.31 171.106C961.652 171.44 961.824 171.901 961.824 172.49C961.824 173.07 961.648 173.527 961.296 173.861C960.954 174.195 960.492 174.362 959.912 174.362C959.341 174.362 958.879 174.195 958.528 173.861C958.185 173.527 958.014 173.07 958.014 172.49ZM961.666 191H958.159V176.313H961.666V191ZM968.587 176.313H971.25V179.095H968.587V186.821C968.587 187.805 968.982 188.297 969.773 188.297C970.283 188.297 970.815 188.174 971.369 187.928V190.67C970.797 191.066 969.94 191.264 968.798 191.264C966.293 191.264 965.041 189.743 965.041 186.702V179.095H963.617V177.526L965.449 176.261L966.346 173.149H968.587V176.313ZM976.932 170.486V175.048C976.932 175.628 976.879 176.678 976.774 178.199H976.958C977.662 176.757 978.743 176.037 980.202 176.037C981.546 176.037 982.562 176.494 983.247 177.408C983.933 178.313 984.275 179.649 984.275 181.416V191H980.742V182.246C980.742 180.093 980.202 179.016 979.121 179.016C978.338 179.016 977.776 179.425 977.433 180.242C977.099 181.06 976.932 182.294 976.932 183.947V191H973.425V170.486H976.932ZM993.253 183.63C993.253 181.24 993.759 179.376 994.77 178.041C995.78 176.705 997.169 176.037 998.936 176.037C1000.7 176.037 1002.09 176.722 1003.1 178.093C1004.13 179.456 1004.64 181.319 1004.64 183.683C1004.64 186.047 1004.13 187.906 1003.11 189.26C1002.1 190.596 1000.7 191.264 998.922 191.264C998.887 191.264 998.856 191.264 998.83 191.264C997.178 191.264 995.833 190.578 994.796 189.207C993.768 187.827 993.253 186.025 993.253 183.802C993.253 183.74 993.253 183.683 993.253 183.63ZM1000.54 180.176C1000.21 179.42 999.678 179.042 998.949 179.042C998.219 179.042 997.683 179.42 997.34 180.176C997.006 180.923 996.839 182.075 996.839 183.63C996.839 185.186 997.006 186.351 997.34 187.124C997.683 187.889 998.219 188.271 998.949 188.271C1000.35 188.271 1001.06 186.724 1001.06 183.63C1001.06 182.083 1000.89 180.932 1000.54 180.176ZM1017.87 191H1015.06L1014.62 189.115H1014.44C1014.11 189.783 1013.65 190.31 1013.04 190.697C1012.44 191.075 1011.75 191.264 1010.99 191.264C1008.31 191.264 1006.98 189.475 1006.98 185.898V176.313H1010.52V185.054C1010.52 186.144 1010.65 186.957 1010.91 187.493C1011.17 188.029 1011.58 188.297 1012.15 188.297C1012.9 188.297 1013.45 187.919 1013.79 187.164C1014.15 186.425 1014.32 185.155 1014.32 183.354V176.313H1017.87V191ZM1027.07 176.037C1027.51 176.037 1027.93 176.103 1028.33 176.234L1027.93 179.636C1027.69 179.548 1027.37 179.504 1026.96 179.504C1026.11 179.504 1025.46 179.842 1025 180.519C1024.54 181.187 1024.31 182.163 1024.31 183.446V191H1020.81V176.313H1023.69L1024.09 178.607H1024.21C1024.6 177.693 1025.01 177.039 1025.46 176.643C1025.92 176.239 1026.45 176.037 1027.07 176.037ZM1035.89 187.361C1036.39 187.695 1036.95 187.972 1037.58 188.192C1038.21 188.412 1038.79 188.521 1039.3 188.521C1039.83 188.521 1040.24 188.39 1040.53 188.126C1040.82 187.862 1040.96 187.506 1040.96 187.058C1040.96 186.601 1040.81 186.206 1040.5 185.872C1040.2 185.538 1039.65 185.133 1038.87 184.659C1037.81 184.026 1037.05 183.354 1036.59 182.642C1036.12 181.921 1035.89 181.073 1035.89 180.097C1035.89 178.84 1036.32 177.852 1037.17 177.131C1038.03 176.401 1039.16 176.037 1040.56 176.037C1041.95 176.037 1043.23 176.379 1044.38 177.065L1043.23 179.583C1042.3 179.073 1041.47 178.818 1040.75 178.818C1040.32 178.818 1039.99 178.933 1039.75 179.161C1039.52 179.39 1039.41 179.697 1039.41 180.084C1039.41 180.462 1039.54 180.8 1039.8 181.099C1040.08 181.389 1040.64 181.793 1041.48 182.312C1042.32 182.822 1042.93 183.27 1043.3 183.657C1044.07 184.465 1044.46 185.48 1044.46 186.702C1044.46 188.152 1044.03 189.277 1043.18 190.077C1042.34 190.868 1041.15 191.264 1039.62 191.264C1038.09 191.264 1036.85 190.978 1035.89 190.407V187.361ZM1052.09 191.264C1050.25 191.264 1048.8 190.613 1047.74 189.312C1046.69 188.012 1046.16 186.153 1046.16 183.736C1046.16 181.319 1046.64 179.434 1047.6 178.08C1048.56 176.718 1049.87 176.037 1051.52 176.037C1053.18 176.037 1054.46 176.621 1055.39 177.79C1056.31 178.95 1056.77 180.581 1056.77 182.681V184.553H1049.72C1049.75 185.845 1050.01 186.816 1050.51 187.467C1051.01 188.108 1051.72 188.429 1052.63 188.429C1053.77 188.429 1054.94 188.073 1056.14 187.361V190.249C1055.01 190.925 1053.67 191.264 1052.09 191.264ZM1053.33 182.009C1053.31 180.945 1053.15 180.137 1052.84 179.583C1052.54 179.021 1052.12 178.739 1051.59 178.739C1051.06 178.739 1050.64 179.016 1050.33 179.57C1050.01 180.115 1049.82 180.928 1049.77 182.009H1053.33ZM1065.35 176.037C1065.79 176.037 1066.22 176.103 1066.62 176.234L1066.21 179.636C1065.97 179.548 1065.65 179.504 1065.25 179.504C1064.4 179.504 1063.74 179.842 1063.28 180.519C1062.83 181.187 1062.6 182.163 1062.6 183.446V191H1059.09V176.313H1061.98L1062.38 178.607H1062.49C1062.88 177.693 1063.3 177.039 1063.75 176.643C1064.2 176.239 1064.74 176.037 1065.35 176.037ZM1074.89 191H1070.54L1066.7 176.313H1070.34L1072.21 184.817C1072.29 185.212 1072.38 185.775 1072.49 186.504C1072.59 187.225 1072.66 187.788 1072.7 188.192H1072.75C1072.78 187.682 1072.88 186.852 1073.07 185.7C1073.11 185.41 1073.79 182.281 1075.1 176.313H1078.74L1074.89 191ZM1080.12 172.49C1080.12 171.901 1080.29 171.44 1080.62 171.106C1080.96 170.763 1081.43 170.592 1082.02 170.592C1082.61 170.592 1083.07 170.763 1083.42 171.106C1083.76 171.44 1083.93 171.901 1083.93 172.49C1083.93 173.07 1083.75 173.527 1083.4 173.861C1083.06 174.195 1082.6 174.362 1082.02 174.362C1081.45 174.362 1080.99 174.195 1080.63 173.861C1080.29 173.527 1080.12 173.07 1080.12 172.49ZM1083.77 191H1080.27V176.313H1083.77V191ZM1091.63 191.264C1089.88 191.264 1088.55 190.626 1087.63 189.352C1086.72 188.078 1086.26 186.175 1086.26 183.644C1086.26 181.112 1086.7 179.214 1087.57 177.948C1088.44 176.674 1089.77 176.037 1091.58 176.037C1092.81 176.037 1093.91 176.344 1094.9 176.959L1093.9 179.688C1093.18 179.258 1092.53 179.042 1091.96 179.042C1091.22 179.042 1090.68 179.425 1090.35 180.189C1090.02 180.954 1089.85 182.119 1089.85 183.683C1089.85 185.248 1090.01 186.399 1090.34 187.137C1090.67 187.875 1091.2 188.245 1091.93 188.245C1092.81 188.245 1093.73 187.937 1094.69 187.322V190.407C1093.76 190.978 1092.74 191.264 1091.63 191.264ZM1102.22 191.264C1100.38 191.264 1098.93 190.613 1097.87 189.312C1096.81 188.012 1096.28 186.153 1096.28 183.736C1096.28 181.319 1096.76 179.434 1097.72 178.08C1098.69 176.718 1100 176.037 1101.65 176.037C1103.3 176.037 1104.59 176.621 1105.51 177.79C1106.43 178.95 1106.9 180.581 1106.9 182.681V184.553H1099.84C1099.87 185.845 1100.13 186.816 1100.63 187.467C1101.13 188.108 1101.84 188.429 1102.76 188.429C1103.89 188.429 1105.06 188.073 1106.26 187.361V190.249C1105.14 190.925 1103.79 191.264 1102.22 191.264ZM1103.46 182.009C1103.44 180.945 1103.27 180.137 1102.97 179.583C1102.66 179.021 1102.24 178.739 1101.71 178.739C1101.19 178.739 1100.77 179.016 1100.45 179.57C1100.13 180.115 1099.95 180.928 1099.9 182.009H1103.46ZM1108.53 187.361C1109.03 187.695 1109.59 187.972 1110.22 188.192C1110.85 188.412 1111.43 188.521 1111.95 188.521C1112.47 188.521 1112.88 188.39 1113.17 188.126C1113.46 187.862 1113.61 187.506 1113.61 187.058C1113.61 186.601 1113.45 186.206 1113.15 185.872C1112.84 185.538 1112.29 185.133 1111.51 184.659C1110.46 184.026 1109.7 183.354 1109.23 182.642C1108.76 181.921 1108.53 181.073 1108.53 180.097C1108.53 178.84 1108.96 177.852 1109.81 177.131C1110.67 176.401 1111.8 176.037 1113.2 176.037C1114.6 176.037 1115.87 176.379 1117.02 177.065L1115.87 179.583C1114.94 179.073 1114.12 178.818 1113.4 178.818C1112.96 178.818 1112.63 178.933 1112.39 179.161C1112.17 179.39 1112.05 179.697 1112.05 180.084C1112.05 180.462 1112.18 180.8 1112.45 181.099C1112.72 181.389 1113.28 181.793 1114.12 182.312C1114.96 182.822 1115.57 183.27 1115.94 183.657C1116.71 184.465 1117.1 185.48 1117.1 186.702C1117.1 188.152 1116.67 189.277 1115.82 190.077C1114.98 190.868 1113.79 191.264 1112.26 191.264C1110.73 191.264 1109.49 190.978 1108.53 190.407V187.361Z" fill="white"/>
</svg>
